<mxfile host="app.diagrams.net" modified="2021-05-30T09:15:54.991Z" agent="5.0 (Windows NT 10.0; Win64; x64) AppleWebKit/537.36 (KHTML, like Gecko) Chrome/90.0.4430.93 Safari/537.36" etag="bheAAnm6cct42zQ3BmCf" version="14.6.13" type="github">
  <diagram name="Page-1" id="aaaa8250-4180-3840-79b5-4cada1eebb92">
    <mxGraphModel dx="3816" dy="1406" grid="1" gridSize="10" guides="1" tooltips="1" connect="1" arrows="1" fold="1" page="1" pageScale="1" pageWidth="850" pageHeight="1100" background="none" math="0" shadow="0">
      <root>
        <mxCell id="0" />
        <mxCell id="1" parent="0" />
        <mxCell id="XxUmlh4Dywhv9LvJiEKr-14" value="" style="verticalLabelPosition=bottom;html=1;verticalAlign=top;strokeWidth=1;dashed=0;shape=mxgraph.aws3d.flatDoubleEdge;fillColor=#000000;aspect=fixed;rounded=1;shadow=0;comic=0;fontFamily=Verdana;fontSize=12;flipV=1;" vertex="1" parent="1">
          <mxGeometry x="737.5" y="800" width="739.1" height="421.5" as="geometry" />
        </mxCell>
        <mxCell id="d5ac148becb70bc-7" value="" style="verticalLabelPosition=bottom;html=1;verticalAlign=top;strokeWidth=1;dashed=0;shape=mxgraph.aws3d.flatDoubleEdge;fillColor=#000000;aspect=fixed;rounded=1;shadow=0;comic=0;fontFamily=Verdana;fontSize=12;flipV=1;" parent="1" vertex="1">
          <mxGeometry x="1602" y="1290" width="650.64" height="371" as="geometry" />
        </mxCell>
        <mxCell id="1a8abee3a6cfdf20-38" value="" style="verticalLabelPosition=bottom;html=1;verticalAlign=top;strokeWidth=1;dashed=0;shape=mxgraph.aws3d.flatDoubleEdge;fillColor=#000000;aspect=fixed;rounded=1;shadow=0;comic=0;fontFamily=Verdana;fontSize=12;flipV=1;" parent="1" vertex="1">
          <mxGeometry x="1120" y="1010" width="753.83" height="429.9" as="geometry" />
        </mxCell>
        <mxCell id="1a8abee3a6cfdf20-28" value="" style="verticalLabelPosition=bottom;html=1;verticalAlign=top;strokeWidth=1;dashed=0;shape=mxgraph.aws3d.flatDoubleEdge;fillColor=#000000;aspect=fixed;rounded=1;shadow=0;comic=0;fontFamily=Verdana;fontSize=12;flipV=1;" parent="1" vertex="1">
          <mxGeometry x="346.1" y="600" width="752.22" height="429" as="geometry" />
        </mxCell>
        <mxCell id="1a8abee3a6cfdf20-3" value="" style="edgeStyle=isometricEdgeStyle;endArrow=none;html=1;labelBackgroundColor=none;strokeWidth=5;fontFamily=Verdana;fontSize=12" parent="1" edge="1">
          <mxGeometry width="50" height="100" relative="1" as="geometry">
            <mxPoint x="352" y="1308" as="sourcePoint" />
            <mxPoint x="300" y="1020" as="targetPoint" />
            <Array as="points">
              <mxPoint x="302" y="1208" />
            </Array>
          </mxGeometry>
        </mxCell>
        <mxCell id="1a8abee3a6cfdf20-20" value="" style="verticalLabelPosition=bottom;html=1;verticalAlign=top;strokeWidth=1;dashed=0;shape=mxgraph.aws3d.simpleDb2;fillColor=#004C99;strokeColor=#99CCFF;aspect=fixed;rounded=1;shadow=0;comic=0;fontSize=12" parent="1" vertex="1">
          <mxGeometry x="2000" y="1236.3999999999999" width="181.5" height="192.6" as="geometry" />
        </mxCell>
        <mxCell id="1a8abee3a6cfdf20-25" value="" style="verticalLabelPosition=bottom;html=1;verticalAlign=top;strokeWidth=1;dashed=0;shape=mxgraph.aws3d.arrowhead;aspect=fixed;rounded=1;shadow=0;comic=0;fillColor=none;fontFamily=Verdana;fontSize=12;fontColor=#000000;flipV=1;" parent="1" vertex="1">
          <mxGeometry x="341" y="1291" width="39" height="23" as="geometry" />
        </mxCell>
        <mxCell id="1a8abee3a6cfdf20-1" value="" style="verticalLabelPosition=bottom;html=1;verticalAlign=top;strokeWidth=1;dashed=0;shape=mxgraph.aws3d.secureConnection;fillColor=#000000;strokeColor=#ffffff;aspect=fixed;rounded=1;shadow=0;comic=0;fontSize=12" parent="1" vertex="1">
          <mxGeometry x="263" y="1010" width="56.99999999999999" height="34" as="geometry" />
        </mxCell>
        <mxCell id="1a8abee3a6cfdf20-30" value="" style="verticalLabelPosition=bottom;html=1;verticalAlign=top;strokeWidth=1;dashed=0;shape=mxgraph.aws3d.dashedEdgeDouble;fillColor=#000000;aspect=fixed;rounded=1;shadow=0;comic=0;fontFamily=Verdana;fontSize=12;flipV=1;" parent="1" vertex="1">
          <mxGeometry x="689" y="777" width="87" height="50" as="geometry" />
        </mxCell>
        <mxCell id="d5ac148becb70bc-8" value="" style="verticalLabelPosition=bottom;html=1;verticalAlign=top;strokeWidth=1;dashed=0;shape=mxgraph.aws3d.dashedArrowlessEdge;aspect=fixed;rounded=1;shadow=0;comic=0;fontFamily=Verdana;fontSize=12" parent="1" vertex="1">
          <mxGeometry x="880" y="504.3" width="1442" height="821.7" as="geometry" />
        </mxCell>
        <mxCell id="d5ac148becb70bc-9" value="" style="verticalLabelPosition=bottom;html=1;verticalAlign=top;strokeWidth=1;dashed=0;shape=mxgraph.aws3d.dashedArrowlessEdge;aspect=fixed;rounded=1;shadow=0;comic=0;fontFamily=Verdana;fontSize=12" parent="1" vertex="1">
          <mxGeometry x="630" y="671.3" width="1489.38" height="848.7" as="geometry" />
        </mxCell>
        <mxCell id="d5ac148becb70bc-10" value="" style="verticalLabelPosition=bottom;html=1;verticalAlign=top;strokeWidth=1;dashed=0;shape=mxgraph.aws3d.dashedArrowlessEdge;fillColor=#000000;aspect=fixed;rounded=1;shadow=0;comic=0;fontFamily=Verdana;fontSize=12;fontColor=#000000;flipV=1;rotation=-10;" parent="1" vertex="1">
          <mxGeometry x="630" y="510" width="258" height="146.69" as="geometry" />
        </mxCell>
        <mxCell id="d5ac148becb70bc-12" value="" style="verticalLabelPosition=bottom;html=1;verticalAlign=top;strokeWidth=1;dashed=0;shape=mxgraph.aws3d.dashedArrowlessEdge;aspect=fixed;rounded=1;shadow=0;comic=0;fontFamily=Verdana;fontSize=12;flipV=1;" parent="1" vertex="1">
          <mxGeometry x="488.5" y="1555" width="249" height="142" as="geometry" />
        </mxCell>
        <mxCell id="d5ac148becb70bc-14" value="" style="edgeStyle=isometricEdgeStyle;endArrow=none;html=1;labelBackgroundColor=none;strokeWidth=5;fontFamily=Verdana;fontSize=12;" parent="1" edge="1">
          <mxGeometry width="50" height="100" relative="1" as="geometry">
            <mxPoint x="462" y="1368" as="sourcePoint" />
            <mxPoint x="1540" y="1710" as="targetPoint" />
            <Array as="points">
              <mxPoint x="930" y="1600" />
            </Array>
          </mxGeometry>
        </mxCell>
        <mxCell id="d5ac148becb70bc-15" value="" style="verticalLabelPosition=bottom;html=1;verticalAlign=top;strokeWidth=1;dashed=0;shape=mxgraph.aws3d.arrowhead;aspect=fixed;rounded=1;shadow=0;comic=0;fillColor=none;fontFamily=Verdana;fontSize=12;fontColor=#000000;flipV=1;" parent="1" vertex="1">
          <mxGeometry x="443" y="1356" width="39" height="23" as="geometry" />
        </mxCell>
        <mxCell id="d5ac148becb70bc-16" value="" style="verticalLabelPosition=bottom;html=1;verticalAlign=top;strokeWidth=1;dashed=0;shape=mxgraph.aws3d.secureConnection;fillColor=#000000;strokeColor=#ffffff;aspect=fixed;rounded=1;shadow=0;comic=0;fontSize=12" parent="1" vertex="1">
          <mxGeometry x="1503" y="1699.4" width="56.99999999999999" height="34" as="geometry" />
        </mxCell>
        <mxCell id="XxUmlh4Dywhv9LvJiEKr-5" value="" style="verticalLabelPosition=bottom;html=1;verticalAlign=top;strokeWidth=1;align=center;outlineConnect=0;dashed=0;outlineConnect=0;shape=mxgraph.aws3d.dataCenter;strokeColor=#5E5E5E;aspect=fixed;" vertex="1" parent="1">
          <mxGeometry x="380" y="1413" width="123" height="142" as="geometry" />
        </mxCell>
        <mxCell id="XxUmlh4Dywhv9LvJiEKr-6" value="" style="verticalLabelPosition=bottom;html=1;verticalAlign=top;strokeWidth=1;align=center;outlineConnect=0;dashed=0;outlineConnect=0;shape=mxgraph.aws3d.dataCenter;strokeColor=#5E5E5E;aspect=fixed;" vertex="1" parent="1">
          <mxGeometry x="203" y="1314" width="123" height="142" as="geometry" />
        </mxCell>
        <mxCell id="XxUmlh4Dywhv9LvJiEKr-7" value="&lt;font style=&quot;font-size: 36px;&quot;&gt;业务数据&lt;/font&gt;" style="text;html=1;resizable=0;autosize=1;align=center;verticalAlign=middle;points=[];fillColor=none;strokeColor=none;rounded=0;rotation=30;fontSize=36;" vertex="1" parent="1">
          <mxGeometry x="127" y="1448" width="160" height="50" as="geometry" />
        </mxCell>
        <mxCell id="XxUmlh4Dywhv9LvJiEKr-8" value="&lt;font style=&quot;font-size: 36px&quot;&gt;对象存储数据&lt;/font&gt;" style="text;html=1;resizable=0;autosize=1;align=center;verticalAlign=middle;points=[];fillColor=none;strokeColor=none;rounded=0;rotation=30;fontSize=36;" vertex="1" parent="1">
          <mxGeometry x="277" y="1555" width="230" height="50" as="geometry" />
        </mxCell>
        <mxCell id="XxUmlh4Dywhv9LvJiEKr-9" value="" style="verticalLabelPosition=bottom;html=1;verticalAlign=top;strokeWidth=1;dashed=0;shape=mxgraph.aws3d.dashedArrowlessEdge;aspect=fixed;rounded=1;shadow=0;comic=0;fontFamily=Verdana;fontSize=12;flipV=1;rotation=-10;" vertex="1" parent="1">
          <mxGeometry x="2092" y="1350" width="249" height="142" as="geometry" />
        </mxCell>
        <mxCell id="XxUmlh4Dywhv9LvJiEKr-10" value="" style="verticalLabelPosition=bottom;html=1;verticalAlign=top;strokeWidth=1;dashed=0;shape=mxgraph.aws3d.dashedArrowlessEdge;aspect=fixed;rounded=1;shadow=0;comic=0;fontFamily=Verdana;fontSize=12" vertex="1" parent="1">
          <mxGeometry x="170" y="1236.4" width="560.54" height="319.41" as="geometry" />
        </mxCell>
        <mxCell id="XxUmlh4Dywhv9LvJiEKr-11" value="" style="verticalLabelPosition=bottom;html=1;verticalAlign=top;strokeWidth=1;dashed=0;shape=mxgraph.aws3d.dashedArrowlessEdge;aspect=fixed;rounded=1;shadow=0;comic=0;fontFamily=Verdana;fontSize=12" vertex="1" parent="1">
          <mxGeometry x="-60" y="1387.67" width="547.07" height="311.73" as="geometry" />
        </mxCell>
        <mxCell id="XxUmlh4Dywhv9LvJiEKr-12" value="" style="verticalLabelPosition=bottom;html=1;verticalAlign=top;strokeWidth=1;dashed=0;shape=mxgraph.aws3d.dashedArrowlessEdge;aspect=fixed;rounded=1;shadow=0;comic=0;fontFamily=Verdana;fontSize=12;flipV=1;" vertex="1" parent="1">
          <mxGeometry x="-79" y="1234" width="249" height="142" as="geometry" />
        </mxCell>
        <mxCell id="XxUmlh4Dywhv9LvJiEKr-13" value="&lt;font style=&quot;font-size: 40px;&quot;&gt;数据层&lt;/font&gt;" style="text;html=1;resizable=0;autosize=1;align=center;verticalAlign=middle;points=[];fillColor=none;strokeColor=none;rounded=0;rotation=30;fontSize=40;" vertex="1" parent="1">
          <mxGeometry x="120" y="1184" width="140" height="50" as="geometry" />
        </mxCell>
        <mxCell id="XxUmlh4Dywhv9LvJiEKr-15" value="" style="verticalLabelPosition=bottom;html=1;verticalAlign=top;strokeWidth=1;align=center;outlineConnect=0;dashed=0;outlineConnect=0;shape=mxgraph.aws3d.email_service;fillColor=#ECECEC;strokeColor=#5E5E5E;aspect=fixed;fontSize=36;" vertex="1" parent="1">
          <mxGeometry x="880" y="993" width="121" height="153.85" as="geometry" />
        </mxCell>
        <mxCell id="XxUmlh4Dywhv9LvJiEKr-16" value="" style="verticalLabelPosition=bottom;html=1;verticalAlign=top;strokeWidth=1;align=center;outlineConnect=0;dashed=0;outlineConnect=0;shape=mxgraph.aws3d.email_service;fillColor=#ECECEC;strokeColor=#5E5E5E;aspect=fixed;fontSize=36;" vertex="1" parent="1">
          <mxGeometry x="530" y="768.15" width="121" height="153.85" as="geometry" />
        </mxCell>
        <mxCell id="XxUmlh4Dywhv9LvJiEKr-17" value="" style="verticalLabelPosition=bottom;html=1;verticalAlign=top;strokeWidth=1;align=center;outlineConnect=0;dashed=0;outlineConnect=0;shape=mxgraph.aws3d.email_service;fillColor=#ECECEC;strokeColor=#5E5E5E;aspect=fixed;fontSize=36;" vertex="1" parent="1">
          <mxGeometry x="1274" y="1202.15" width="121" height="153.85" as="geometry" />
        </mxCell>
        <mxCell id="XxUmlh4Dywhv9LvJiEKr-19" value="" style="verticalLabelPosition=bottom;html=1;verticalAlign=top;strokeWidth=1;align=center;outlineConnect=0;dashed=0;outlineConnect=0;shape=mxgraph.aws3d.email_service;fillColor=#ECECEC;strokeColor=#5E5E5E;aspect=fixed;fontSize=36;" vertex="1" parent="1">
          <mxGeometry x="1700" y="1458" width="121" height="153.85" as="geometry" />
        </mxCell>
        <mxCell id="XxUmlh4Dywhv9LvJiEKr-20" value="&lt;font style=&quot;font-size: 36px&quot;&gt;消息服务&lt;/font&gt;" style="text;html=1;resizable=0;autosize=1;align=center;verticalAlign=middle;points=[];fillColor=none;strokeColor=none;rounded=0;rotation=30;fontSize=36;" vertex="1" parent="1">
          <mxGeometry x="443" y="910" width="160" height="50" as="geometry" />
        </mxCell>
        <mxCell id="XxUmlh4Dywhv9LvJiEKr-21" value="&lt;font style=&quot;font-size: 36px&quot;&gt;缓存服务&lt;/font&gt;" style="text;html=1;resizable=0;autosize=1;align=center;verticalAlign=middle;points=[];fillColor=none;strokeColor=none;rounded=0;rotation=30;fontSize=36;" vertex="1" parent="1">
          <mxGeometry x="782" y="1146.85" width="160" height="50" as="geometry" />
        </mxCell>
        <mxCell id="XxUmlh4Dywhv9LvJiEKr-22" value="数据中间件" style="text;html=1;resizable=0;autosize=1;align=center;verticalAlign=middle;points=[];fillColor=none;strokeColor=none;rounded=0;rotation=30;fontSize=36;" vertex="1" parent="1">
          <mxGeometry x="1163.5" y="1360" width="200" height="50" as="geometry" />
        </mxCell>
        <mxCell id="XxUmlh4Dywhv9LvJiEKr-23" value="&lt;font style=&quot;font-size: 36px&quot;&gt;实时采集&lt;/font&gt;" style="text;html=1;resizable=0;autosize=1;align=center;verticalAlign=middle;points=[];fillColor=none;strokeColor=none;rounded=0;rotation=30;fontSize=36;" vertex="1" parent="1">
          <mxGeometry x="1610" y="1611.85" width="160" height="50" as="geometry" />
        </mxCell>
        <mxCell id="XxUmlh4Dywhv9LvJiEKr-24" value="" style="verticalLabelPosition=bottom;html=1;verticalAlign=top;strokeWidth=1;dashed=0;shape=mxgraph.aws3d.dashedArrowlessEdge;aspect=fixed;rounded=1;shadow=0;comic=0;fontFamily=Verdana;fontSize=12" vertex="1" parent="1">
          <mxGeometry x="320" y="929.8" width="1456.92" height="830.2" as="geometry" />
        </mxCell>
        <mxCell id="XxUmlh4Dywhv9LvJiEKr-25" value="" style="verticalLabelPosition=bottom;html=1;verticalAlign=top;strokeWidth=1;dashed=0;shape=mxgraph.aws3d.dashedArrowlessEdge;aspect=fixed;rounded=1;shadow=0;comic=0;fontFamily=Verdana;fontSize=12" vertex="1" parent="1">
          <mxGeometry x="559" y="725" width="1432" height="816" as="geometry" />
        </mxCell>
        <mxCell id="XxUmlh4Dywhv9LvJiEKr-26" value="" style="verticalLabelPosition=bottom;html=1;verticalAlign=top;strokeWidth=1;dashed=0;shape=mxgraph.aws3d.dashedArrowlessEdge;aspect=fixed;rounded=1;shadow=0;comic=0;fontFamily=Verdana;fontSize=12;flipV=1;rotation=-15;" vertex="1" parent="1">
          <mxGeometry x="1758.23" y="1578.39" width="270.62" height="154.33" as="geometry" />
        </mxCell>
        <mxCell id="XxUmlh4Dywhv9LvJiEKr-27" value="" style="verticalLabelPosition=bottom;html=1;verticalAlign=top;strokeWidth=1;dashed=0;shape=mxgraph.aws3d.dashedArrowlessEdge;aspect=fixed;rounded=1;shadow=0;comic=0;fontFamily=Verdana;fontSize=12;flipV=1;rotation=-10;" vertex="1" parent="1">
          <mxGeometry x="312" y="750.0000000000001" width="270.62" height="154.33" as="geometry" />
        </mxCell>
        <mxCell id="XxUmlh4Dywhv9LvJiEKr-28" value="&lt;font style=&quot;font-size: 40px;&quot;&gt;业务层&lt;/font&gt;" style="text;html=1;resizable=0;autosize=1;align=center;verticalAlign=middle;points=[];fillColor=none;strokeColor=none;rounded=0;rotation=30;fontSize=40;" vertex="1" parent="1">
          <mxGeometry x="861" y="480.0000000000001" width="140" height="50" as="geometry" />
        </mxCell>
        <mxCell id="XxUmlh4Dywhv9LvJiEKr-29" value="&lt;font style=&quot;font-size: 40px;&quot;&gt;数据中间件&lt;/font&gt;" style="text;html=1;resizable=0;autosize=1;align=center;verticalAlign=middle;points=[];fillColor=none;strokeColor=none;rounded=0;rotation=30;fontSize=40;" vertex="1" parent="1">
          <mxGeometry x="503" y="700.0000000000001" width="220" height="50" as="geometry" />
        </mxCell>
        <mxCell id="XxUmlh4Dywhv9LvJiEKr-30" value="" style="verticalLabelPosition=bottom;html=1;verticalAlign=top;strokeWidth=1;align=center;outlineConnect=0;dashed=0;outlineConnect=0;shape=mxgraph.aws3d.application2;fillColor=#86E83A;strokeColor=#B0F373;aspect=fixed;fontSize=40;" vertex="1" parent="1">
          <mxGeometry x="1610.66" y="1040" width="147.57" height="126.15" as="geometry" />
        </mxCell>
        <mxCell id="XxUmlh4Dywhv9LvJiEKr-31" value="" style="verticalLabelPosition=bottom;html=1;verticalAlign=top;strokeWidth=1;dashed=0;shape=mxgraph.aws3d.simpleDb2;fillColor=#004C99;strokeColor=#99CCFF;aspect=fixed;rounded=1;shadow=0;comic=0;fontSize=12" vertex="1" parent="1">
          <mxGeometry x="1190" y="749.9999999999999" width="181.5" height="192.6" as="geometry" />
        </mxCell>
        <mxCell id="XxUmlh4Dywhv9LvJiEKr-32" value="" style="verticalLabelPosition=bottom;html=1;verticalAlign=top;strokeWidth=1;align=center;outlineConnect=0;dashed=0;outlineConnect=0;shape=mxgraph.aws3d.application2;fillColor=#86E83A;strokeColor=#B0F373;aspect=fixed;fontSize=40;" vertex="1" parent="1">
          <mxGeometry x="866.71" y="610" width="147.57" height="126.15" as="geometry" />
        </mxCell>
        <mxCell id="XxUmlh4Dywhv9LvJiEKr-33" value="" style="verticalLabelPosition=bottom;html=1;verticalAlign=top;strokeWidth=1;align=center;outlineConnect=0;dashed=0;outlineConnect=0;shape=mxgraph.aws3d.elasticMapReduce;fillColor=#ECECEC;strokeColor=#5E5E5E;aspect=fixed;fontSize=40;" vertex="1" parent="1">
          <mxGeometry x="1560" y="472.5" width="173.4" height="187.5" as="geometry" />
        </mxCell>
        <mxCell id="XxUmlh4Dywhv9LvJiEKr-35" value="" style="verticalLabelPosition=bottom;html=1;verticalAlign=top;strokeWidth=1;align=center;outlineConnect=0;dashed=0;outlineConnect=0;shape=mxgraph.aws3d.elasticMapReduce;fillColor=#ECECEC;strokeColor=#5E5E5E;aspect=fixed;fontSize=40;" vertex="1" parent="1">
          <mxGeometry x="1952" y="718.15" width="173.4" height="187.5" as="geometry" />
        </mxCell>
        <mxCell id="XxUmlh4Dywhv9LvJiEKr-38" value="" style="verticalLabelPosition=bottom;html=1;verticalAlign=top;strokeWidth=1;dashed=0;shape=mxgraph.aws3d.arrowhead;aspect=fixed;rounded=1;shadow=0;comic=0;fillColor=none;fontFamily=Verdana;fontSize=12;fontColor=#000000;flipV=1;" vertex="1" parent="1">
          <mxGeometry x="390" y="1321.2" width="39" height="23" as="geometry" />
        </mxCell>
        <mxCell id="1a8abee3a6cfdf20-2" value="" style="verticalLabelPosition=bottom;html=1;verticalAlign=top;strokeWidth=1;dashed=0;shape=mxgraph.aws3d.secureConnection;fillColor=#000000;strokeColor=#ffffff;aspect=fixed;rounded=1;shadow=0;comic=0;fontSize=12" parent="1" vertex="1">
          <mxGeometry x="651" y="1234" width="56.99999999999999" height="34" as="geometry" />
        </mxCell>
        <mxCell id="XxUmlh4Dywhv9LvJiEKr-39" value="" style="edgeStyle=isometricEdgeStyle;endArrow=none;html=1;labelBackgroundColor=none;strokeWidth=5;fontFamily=Verdana;fontSize=12;entryX=0.509;entryY=0.723;entryDx=0;entryDy=0;entryPerimeter=0;" edge="1" parent="1" target="1a8abee3a6cfdf20-2">
          <mxGeometry width="50" height="100" relative="1" as="geometry">
            <mxPoint x="420" y="1330" as="sourcePoint" />
            <mxPoint x="742.0202923048591" y="1221.5" as="targetPoint" />
            <Array as="points" />
          </mxGeometry>
        </mxCell>
        <mxCell id="XxUmlh4Dywhv9LvJiEKr-43" value="" style="verticalLabelPosition=bottom;html=1;verticalAlign=top;strokeWidth=1;align=center;outlineConnect=0;dashed=0;outlineConnect=0;shape=mxgraph.aws3d.arrowSW;fillColor=#000000;aspect=fixed;fontSize=40;" vertex="1" parent="1">
          <mxGeometry x="1410" y="665.0400000000001" width="209.86" height="119.92" as="geometry" />
        </mxCell>
        <mxCell id="XxUmlh4Dywhv9LvJiEKr-44" value="" style="verticalLabelPosition=bottom;html=1;verticalAlign=top;strokeWidth=1;align=center;outlineConnect=0;dashed=0;outlineConnect=0;shape=mxgraph.aws3d.arrowSW;fillColor=#000000;aspect=fixed;fontSize=40;" vertex="1" parent="1">
          <mxGeometry x="1810" y="890.08" width="209.86" height="119.92" as="geometry" />
        </mxCell>
        <mxCell id="XxUmlh4Dywhv9LvJiEKr-45" value="&lt;font style=&quot;font-size: 36px&quot;&gt;弹性负载均衡&lt;/font&gt;" style="text;html=1;resizable=0;autosize=1;align=center;verticalAlign=middle;points=[];fillColor=none;strokeColor=none;rounded=0;rotation=45;fontSize=36;" vertex="1" parent="1">
          <mxGeometry x="1675" y="454.29999999999995" width="230" height="50" as="geometry" />
        </mxCell>
        <mxCell id="XxUmlh4Dywhv9LvJiEKr-46" value="&lt;font style=&quot;font-size: 36px&quot;&gt;弹性伸缩服务&lt;/font&gt;" style="text;html=1;resizable=0;autosize=1;align=center;verticalAlign=middle;points=[];fillColor=none;strokeColor=none;rounded=0;rotation=45;fontSize=36;" vertex="1" parent="1">
          <mxGeometry x="2050" y="700" width="230" height="50" as="geometry" />
        </mxCell>
      </root>
    </mxGraphModel>
  </diagram>
</mxfile>
